<?xml version="1.0" standalone="no"?>
<!DOCTYPE svg PUBLIC "-//W3C//DTD SVG 20010904//EN"
 "http://www.w3.org/TR/2001/REC-SVG-20010904/DTD/svg10.dtd">
<svg version="1.0" xmlns="http://www.w3.org/2000/svg"
 width="277.000000pt" height="277.000000pt" viewBox="0 0 277.000000 277.000000"
 preserveAspectRatio="xMidYMid meet">
<metadata>
Created by potrace 1.14, written by Peter Selinger 2001-2017
</metadata>
<g transform="translate(0.000000,277.000000) scale(0.100000,-0.100000)"
fill="#000000" stroke="none">
<path d="M1318 2753 c-10 -12 -25 -14 -70 -9 -48 5 -59 3 -70 -13 -7 -10 -32
-28 -55 -39 -50 -26 -83 -69 -83 -110 0 -17 -4 -34 -10 -37 -5 -3 -10 -16 -9
-28 0 -12 -3 -46 -7 -75 -4 -34 0 -85 11 -147 15 -81 16 -99 5 -120 -7 -14
-10 -28 -7 -32 4 -3 7 1 7 10 0 28 18 19 23 -10 2 -16 5 -2 6 29 0 31 6 60 11
63 6 3 10 0 10 -8 0 -8 8 -25 19 -38 16 -21 28 -23 100 -24 71 -2 81 0 81 16
0 10 4 20 9 24 5 3 12 19 16 35 4 17 11 30 16 30 12 0 31 -49 24 -60 -8 -14 5
-38 31 -54 18 -12 22 -13 18 -2 -4 10 6 12 45 8 68 -6 107 11 123 54 7 19 17
33 23 31 15 -5 18 -96 4 -145 -11 -39 -13 -56 -18 -127 -2 -21 -63 -94 -84
-98 -6 -1 -15 -6 -18 -10 -10 -13 -83 -22 -75 -8 10 16 -21 26 -39 11 -8 -7
-15 -9 -15 -4 0 4 -5 3 -11 -3 -15 -15 -49 -4 -49 15 0 11 -5 10 -19 -7 -19
-22 -41 -23 -76 -4 -33 17 -47 5 -24 -20 12 -12 28 -37 35 -55 17 -39 61 -64
74 -42 11 18 85 16 132 -4 l37 -16 53 50 c57 54 63 58 54 34 -3 -9 -3 -21 1
-27 5 -7 13 -41 19 -77 11 -63 11 -66 -17 -109 -15 -23 -43 -50 -61 -60 -27
-13 -34 -24 -40 -59 -4 -23 -17 -56 -28 -73 l-22 -30 -41 86 c-33 70 -45 85
-61 83 -51 -6 -112 49 -132 120 -18 61 -32 59 -44 -7 -11 -59 5 -130 37 -163
33 -35 44 -35 65 -1 16 26 15 27 -26 61 -22 19 -45 42 -50 51 -5 9 8 -1 30
-21 21 -21 47 -43 56 -50 16 -12 15 -16 -8 -55 -22 -37 -29 -41 -45 -32 -32
17 -73 88 -72 125 l1 33 -27 -16 c-14 -10 -47 -36 -72 -59 -52 -48 -127 -88
-180 -98 -26 -4 -55 -24 -101 -69 -92 -88 -139 -195 -158 -355 -5 -42 -12 -91
-16 -108 -6 -32 -6 -32 37 -32 80 0 128 -6 116 -15 -8 -6 -4 -7 11 -4 14 3 20
1 15 -6 -4 -7 0 -8 11 -4 11 5 15 3 10 -5 -5 -8 -2 -9 10 -5 11 5 15 3 10 -5
-5 -8 -2 -9 9 -5 9 3 16 3 14 -1 -1 -5 15 -23 36 -41 21 -19 36 -36 33 -38 -3
-3 -15 5 -28 16 -64 60 -220 111 -274 90 -17 -7 -24 -13 -16 -16 10 -4 10 -8
-2 -17 -10 -7 -14 -19 -10 -34 8 -28 22 -28 26 1 2 15 14 25 38 33 30 10 44 8
99 -12 70 -26 124 -63 141 -95 13 -23 -7 -93 -46 -169 -13 -25 -24 -53 -24
-63 0 -10 -7 -20 -15 -22 -8 -3 -23 -8 -32 -11 -34 -13 -122 -10 -127 3 -3 7
-15 13 -26 13 -21 0 -27 14 -10 25 5 3 10 2 10 -2 0 -5 10 -10 22 -10 16 -2
19 0 9 6 -7 5 -10 14 -7 20 4 7 2 10 -5 9 -7 -2 -15 5 -17 15 -4 21 -42 63
-42 48 0 -6 4 -12 9 -16 13 -7 5 -86 -9 -95 -6 -4 -9 -20 -6 -36 2 -16 5 -48
5 -70 1 -34 5 -43 23 -47 28 -8 29 -6 30 33 1 18 4 26 9 19 4 -6 14 -9 23 -6
9 4 16 1 16 -6 0 -8 4 -6 10 3 5 8 10 11 10 6 0 -5 7 -2 16 5 14 11 18 10 30
-6 11 -15 26 -19 81 -18 38 0 73 -3 78 -7 6 -4 26 -10 45 -14 19 -3 48 -13 63
-21 16 -8 66 -17 110 -20 45 -4 123 -14 172 -25 50 -10 113 -21 140 -25 28 -4
53 -11 56 -17 4 -5 58 -11 122 -11 63 -1 119 -6 124 -11 4 -5 3 -6 -4 -2 -9 5
-144 -32 -223 -61 -18 -7 -40 -13 -60 -17 -8 -1 -33 -7 -55 -14 -52 -14 -89
-21 -150 -28 -27 -3 -67 -10 -87 -16 -27 -8 -41 -8 -51 0 -10 8 -24 8 -51 1
-26 -7 -47 -7 -68 0 -22 8 -35 8 -44 0 -11 -9 -18 -8 -29 1 -8 7 -22 10 -30 6
-8 -3 -15 -2 -15 2 0 4 -19 6 -42 5 -24 -2 -84 -4 -134 -5 -69 -2 -90 -6 -87
-16 3 -7 15 -14 27 -17 44 -10 292 -16 879 -21 l608 -5 -5 33 c-3 18 -10 76
-16 128 -6 52 -13 102 -15 112 -1 9 15 33 36 54 55 53 125 244 161 439 6 33
17 69 24 81 10 15 12 39 8 85 -3 35 -8 127 -11 204 -5 168 -24 283 -53 330
-38 62 -99 103 -186 125 -43 11 -92 26 -109 34 -16 7 -57 22 -90 32 -33 10
-66 27 -74 38 -13 17 -15 14 -33 -40 -21 -69 -66 -153 -89 -167 -12 -7 -23 -5
-40 7 -21 16 -22 17 -3 12 27 -8 45 12 84 96 42 91 48 130 22 156 -16 16 -29
20 -55 15 -32 -5 -34 -3 -41 27 -17 88 0 232 28 229 35 -4 40 2 16 22 -24 20
-24 21 -6 35 11 8 22 11 25 8 3 -4 0 -9 -6 -11 -17 -6 -16 -23 1 -23 25 0 37
156 12 166 -10 4 -13 25 -11 83 1 42 -1 95 -4 117 -4 21 -3 51 3 65 7 19 5 37
-7 66 -9 22 -14 49 -11 59 5 19 -45 84 -64 84 -5 0 -15 7 -22 15 -7 9 -15 13
-17 11 -3 -3 -21 4 -40 15 -24 14 -39 17 -47 10 -8 -7 -27 -6 -58 4 -41 12
-48 12 -60 -2z m40 -262 c32 -9 42 -17 42 -33 0 -12 3 -19 6 -15 3 3 17 -4 30
-17 31 -28 23 -56 -16 -56 -16 0 -31 -4 -35 -10 -3 -5 -12 -7 -19 -4 -8 3 -16
-4 -19 -15 -7 -27 -48 -28 -72 -1 -11 12 -31 20 -52 20 -18 0 -42 5 -52 12
-18 11 -18 12 5 31 13 10 22 22 19 26 -7 12 37 48 68 55 15 3 27 10 27 15 0
10 7 9 68 -8z m-258 -128 c0 -15 2 -16 10 -3 6 9 10 10 10 3 0 -13 -51 -56
-58 -48 -7 7 19 65 29 65 5 0 9 -8 9 -17z m490 -37 c0 -28 -13 -11 -16 21 -2
21 -1 24 6 13 5 -8 10 -24 10 -34z m-313 -28 c19 -20 12 -53 -18 -91 -18 -24
-28 -27 -79 -27 -38 0 -62 5 -70 14 -14 18 -21 88 -7 79 5 -3 7 0 5 8 -3 8 4
20 16 27 29 17 132 10 153 -10z m193 7 c0 -10 -11 -15 -34 -15 -31 0 -53 -19
-39 -34 12 -12 22 -6 17 9 -4 8 -1 15 5 15 6 0 11 -7 11 -15 0 -8 9 -15 19
-15 11 0 22 -6 24 -12 4 -9 11 -6 24 10 23 28 53 20 53 -13 0 -37 -26 -55 -80
-55 -60 0 -77 6 -92 34 -10 19 -10 20 5 7 24 -19 21 1 -4 28 -34 36 -10 63 61
68 21 2 30 -2 30 -12z m134 -21 c3 -8 2 -12 -4 -9 -6 3 -10 10 -10 16 0 14 7
11 14 -7z m-553 -17 c-10 -9 -11 -8 -5 6 3 10 9 15 12 12 3 -3 0 -11 -7 -18z
m603 -63 c4 -9 4 -32 0 -51 -5 -27 -9 -31 -20 -22 -14 12 -19 70 -7 82 11 11
21 8 27 -9z m-279 -14 c3 -5 1 -10 -4 -10 -6 0 -11 5 -11 10 0 6 2 10 4 10 3
0 8 -4 11 -10z m175 -676 c0 -2 -9 0 -20 6 -11 6 -20 13 -20 16 0 2 9 0 20 -6
11 -6 20 -13 20 -16z m146 -2 c-8 -16 -22 -34 -31 -42 -9 -7 -4 5 11 28 32 48
41 55 20 14z m-540 -88 c18 -15 18 -15 -2 -5 -21 10 -54 52 -54 68 0 4 8 -4
18 -20 10 -15 27 -34 38 -43z m224 -165 c0 -5 -7 -9 -15 -9 -15 0 -20 12 -9
23 8 8 24 -1 24 -14z m809 -217 c19 -10 41 -30 50 -43 14 -23 14 -23 -15 3
-35 32 -108 51 -167 42 -52 -8 -138 -47 -162 -74 -25 -28 -12 -37 15 -10 11
11 25 18 31 14 6 -3 18 1 27 9 31 27 116 42 161 28 55 -16 98 -55 112 -101 14
-48 6 -78 -16 -60 -8 7 -15 18 -15 24 0 6 5 4 10 -4 5 -8 10 -10 10 -4 0 19
-11 23 -36 14 -19 -7 -24 -6 -24 5 0 8 -5 15 -11 15 -5 0 -7 -5 -4 -10 3 -6
-1 -13 -10 -16 -10 -4 -13 -13 -10 -25 4 -10 -2 -35 -11 -56 -13 -26 -15 -38
-6 -41 9 -3 8 -13 -3 -39 -18 -43 -19 -73 -2 -73 7 0 8 -3 2 -8 -6 -4 -11 -31
-13 -59 -3 -82 -6 -103 -16 -103 -4 0 -6 -6 -3 -14 7 -19 -22 -117 -41 -138
-16 -20 -52 -24 -68 -8 -15 15 -104 19 -104 4 0 -7 5 -16 10 -19 17 -11 11
-25 -11 -25 -11 0 -29 -5 -41 -11 -11 -6 -34 -13 -52 -15 -17 -2 -44 -6 -61
-8 -86 -14 -221 -7 -298 16 -23 7 -46 13 -52 14 -5 1 -12 3 -15 4 -4 2 -37 7
-80 11 -8 1 -20 6 -27 11 -7 5 -16 7 -21 4 -13 -8 -162 41 -183 60 -26 24 -24
61 7 97 27 32 49 39 71 24 7 -5 14 -1 18 13 3 11 11 18 16 14 6 -3 17 0 26 8
14 11 16 11 8 -1 -6 -11 -3 -13 15 -8 14 4 28 0 38 -9 8 -9 18 -12 21 -7 3 4
13 9 21 10 8 1 37 6 65 11 31 7 52 7 56 1 3 -5 14 0 24 11 15 16 21 18 33 7
12 -9 16 -9 19 0 2 7 10 10 18 7 7 -3 16 0 20 5 3 6 11 9 16 5 6 -3 17 3 24
14 10 13 23 18 41 16 28 -3 109 48 96 60 -3 4 2 4 11 0 10 -4 28 -2 40 4 12 6
39 13 60 17 20 3 37 11 37 16 0 6 9 8 19 4 13 -4 25 2 40 21 12 15 21 23 21
19 0 -10 67 62 81 86 7 14 6 25 -6 41 -8 13 -16 34 -16 48 -1 20 -2 21 -6 5
-3 -11 -16 -35 -29 -55 -13 -19 -24 -43 -24 -53 0 -23 -20 -44 -55 -57 -27
-10 -27 -9 -23 21 l5 31 -19 -23 c-10 -13 -21 -34 -24 -46 -3 -13 -12 -23 -20
-23 -18 0 -18 0 11 65 14 31 23 60 19 66 -4 6 -1 15 6 19 8 5 14 30 15 56 2
45 5 50 56 91 30 24 72 49 94 57 59 21 163 20 204 -2z m-1348 -535 c-16 -16
-19 -5 -7 33 l10 35 4 -29 c2 -16 -1 -33 -7 -39z m93 -94 c3 -16 8 -38 12 -50
6 -22 5 -22 -24 -12 -39 13 -50 44 -26 70 23 26 30 24 38 -8z"/>
<path d="M1126 2264 c-12 -31 -6 -34 52 -28 87 9 88 9 71 -13 -12 -17 -12 -17
5 -1 22 19 12 42 -16 35 -14 -4 -18 -2 -14 9 3 8 -1 14 -8 14 -8 0 -17 -6 -19
-12 -4 -10 -6 -10 -6 0 -1 18 -58 15 -65 -4z"/>
<path d="M1642 2180 c0 -14 2 -19 5 -12 2 6 2 18 0 25 -3 6 -5 1 -5 -13z"/>
<path d="M1864 905 c-9 -14 -14 -28 -11 -31 3 -3 13 8 22 25 19 37 12 41 -11
6z"/>
<path d="M1885 848 l-16 -33 20 25 c20 24 26 40 16 40 -2 0 -12 -15 -20 -32z"/>
<path d="M2111 814 c0 -11 3 -14 6 -6 3 7 2 16 -1 19 -3 4 -6 -2 -5 -13z"/>
<path d="M1337 2128 c-3 -8 5 -14 19 -14 27 -2 32 11 8 20 -21 8 -21 8 -27 -6z"/>
<path d="M1254 2108 c-4 -13 -23 -37 -42 -54 -32 -28 -34 -32 -21 -50 8 -10
19 -20 24 -20 6 -1 21 -5 35 -9 22 -7 23 -6 11 9 -12 14 -10 16 14 16 24 0 26
2 15 15 -9 11 -23 14 -44 10 l-31 -6 25 15 c35 21 150 21 176 0 18 -15 18 -15
-8 -10 -29 7 -58 -1 -58 -15 0 -5 7 -9 15 -9 8 0 15 6 15 13 0 8 4 7 10 -3 7
-11 5 -19 -7 -27 -22 -17 -1 -17 44 -1 21 8 32 17 28 26 -2 7 0 10 5 7 6 -3
10 1 10 9 0 9 -16 26 -35 38 -20 13 -33 29 -30 36 4 10 -3 12 -28 7 -42 -9
-47 -13 -47 -33 0 -13 -3 -12 -15 5 -8 12 -25 24 -38 26 l-22 4 23 2 c13 0 20
6 17 11 -11 18 -33 11 -41 -12z"/>
<path d="M1022 2095 c0 -16 2 -22 5 -12 2 9 2 23 0 30 -3 6 -5 -1 -5 -18z"/>
<path d="M1052 2080 c-16 -26 -16 -27 8 -33 21 -5 24 4 12 35 -7 17 -8 16 -20
-2z"/>
<path d="M1030 2030 c0 -5 5 -10 11 -10 5 0 7 5 4 10 -3 6 -8 10 -11 10 -2 0
-4 -4 -4 -10z"/>
<path d="M1067 2006 c-4 -10 -1 -13 8 -9 8 3 12 9 9 14 -7 12 -11 11 -17 -5z"/>
<path d="M1283 1952 c-21 -7 -21 -7 -3 -30 10 -12 21 -18 25 -13 3 6 11 8 18
6 7 -3 26 4 42 15 l30 20 -25 0 c-14 0 -34 2 -45 4 -11 3 -30 1 -42 -2z"/>
<path d="M1416 202 c-3 -6 -1 -14 5 -17 15 -10 25 3 12 16 -7 7 -13 7 -17 1z"/>
</g>
</svg>
